<?xml version="1.0" standalone="no"?>
<!DOCTYPE svg PUBLIC "-//W3C//DTD SVG 20010904//EN"
 "http://www.w3.org/TR/2001/REC-SVG-20010904/DTD/svg10.dtd">
<svg version="1.0" xmlns="http://www.w3.org/2000/svg"
 width="1200.000000pt" height="1200.000000pt" viewBox="0 0 1200.000000 1200.000000"
 preserveAspectRatio="xMidYMid meet">
<metadata>
Created by potrace 1.14, written by Peter Selinger 2001-2017
</metadata>
<g transform="translate(0.000000,1200.000000) scale(0.100000,-0.100000)"
fill="#000000" stroke="none">
<path d="M6959 11992 c-4 -25 -3 -39 5 -49 5 -8 5 -13 -1 -13 -10 0 -10 -60 1
-78 4 -7 4 -18 0 -24 -11 -17 -11 -119 0 -125 4 -3 2 -10 -5 -15 -11 -7 -11
-11 -1 -15 6 -2 9 -9 6 -15 -9 -15 -9 -111 0 -126 4 -7 4 -12 -1 -11 -4 1 -10
0 -13 -1 -16 -6 -80 -4 -80 3 0 4 -6 5 -12 1 -18 -11 -48 -12 -48 -2 0 5 -6 6
-12 2 -17 -11 -48 -12 -48 -3 0 4 -13 4 -30 -1 -19 -5 -30 -5 -30 1 0 6 -7 6
-17 1 -10 -5 -27 -6 -38 -2 -11 4 -27 5 -35 1 -8 -4 -34 -5 -57 -4 -66 4 -66
4 -95 0 -16 -2 -28 0 -28 5 0 5 -6 6 -12 2 -19 -12 -48 -12 -48 -1 0 6 -5 6
-12 1 -16 -11 -39 -11 -55 -1 -7 5 -13 5 -13 0 0 -4 -16 -8 -35 -8 -19 0 -35
4 -35 8 0 4 -8 4 -17 -1 -10 -5 -27 -6 -38 -2 -11 4 -27 5 -35 1 -8 -4 -34 -5
-57 -4 -40 3 -49 3 -88 3 -8 0 -22 0 -30 0 -8 0 -22 0 -30 0 -8 0 -22 0 -30 0
-8 0 -30 0 -47 0 -45 0 -89 -1 -113 -4 -11 -1 -26 2 -32 7 -8 6 -13 6 -13 0 0
-10 -41 -10 -58 1 -7 4 -12 3 -12 -1 0 -10 -41 -10 -56 -1 -24 16 -49 -31 -31
-59 5 -7 5 -13 0 -13 -10 0 -9 -147 0 -157 9 -9 9 -25 0 -20 -5 3 -7 -32 -5
-76 5 -169 8 -161 -48 -158 -41 2 -44 2 -72 -2 -16 -2 -28 0 -28 6 0 6 -5 6
-12 1 -16 -11 -39 -11 -55 -1 -7 5 -13 4 -13 -1 0 -5 -12 -7 -27 -5 -16 2 -34
4 -40 4 -7 -1 -21 -1 -30 -1 -29 0 -77 -2 -98 -4 -11 -1 -27 1 -36 5 -8 4 -21
4 -29 -1 -8 -5 -21 -5 -30 0 -9 5 -22 5 -30 0 -8 -5 -21 -5 -30 0 -9 5 -22 5
-30 0 -8 -5 -22 -4 -32 1 -10 5 -18 6 -18 2 0 -4 -11 -8 -25 -8 -14 0 -25 4
-25 8 0 5 -6 5 -12 1 -18 -11 -48 -12 -48 -2 0 5 -6 6 -12 2 -18 -11 -48 -12
-48 -2 0 5 -6 6 -12 2 -18 -11 -48 -12 -48 -2 0 5 -6 6 -12 2 -18 -11 -48 -12
-48 -2 0 5 -6 6 -12 2 -17 -11 -48 -12 -48 -3 0 5 -10 5 -22 1 -25 -9 -60 -8
-75 1 -5 3 -15 2 -23 -3 -8 -5 -21 -5 -30 0 -9 5 -22 5 -30 0 -8 -5 -21 -5
-30 0 -9 5 -22 5 -30 0 -8 -5 -21 -5 -30 0 -9 5 -22 5 -30 0 -8 -5 -22 -4 -32
1 -10 5 -18 6 -18 2 0 -4 -11 -9 -25 -9 -14 -1 -25 2 -25 7 0 6 -7 6 -17 0
-14 -7 -18 -22 -17 -73 0 -35 3 -69 8 -76 4 -7 4 -18 0 -24 -11 -17 -11 -119
0 -125 4 -3 2 -10 -5 -15 -11 -7 -11 -11 -1 -15 6 -2 9 -9 6 -15 -9 -15 -9
-111 0 -126 4 -7 4 -12 -1 -11 -4 1 -10 0 -13 -1 -16 -6 -80 -4 -80 3 0 4 -6
5 -12 1 -18 -11 -48 -12 -48 -2 0 5 -6 6 -12 2 -17 -11 -48 -12 -48 -3 0 4
-13 4 -30 -1 -19 -5 -30 -5 -30 1 0 6 -5 7 -11 4 -16 -11 -69 -12 -69 -2 0 4
-5 5 -12 1 -16 -10 -89 -13 -83 -3 3 4 -4 5 -15 2 -21 -6 -23 -13 -21 -78 2
-47 1 -72 -3 -100 -1 -11 2 -26 7 -32 5 -7 6 -13 1 -13 -5 0 -9 -18 -9 -40 0
-22 4 -40 8 -40 4 0 4 -8 0 -17 -10 -22 -10 -44 0 -60 5 -7 4 -13 0 -13 -5 0
-8 -17 -7 -37 0 -21 -1 -42 -3 -48 -3 -11 -94 -12 -110 -2 -6 4 -13 4 -17 0
-9 -10 -56 -10 -56 0 0 4 -6 5 -12 1 -16 -10 -50 -10 -66 0 -6 4 -12 3 -12 -1
0 -10 -41 -10 -57 0 -5 4 -13 3 -17 0 -10 -10 -96 -12 -90 -2 3 5 -5 5 -18 0
-20 -7 -22 -15 -23 -72 0 -35 3 -69 8 -76 5 -7 5 -18 1 -25 -11 -17 -11 -119
0 -125 4 -3 2 -9 -5 -13 -10 -7 -10 -11 0 -24 8 -9 10 -16 5 -16 -5 0 -9 -25
-9 -55 0 -30 4 -55 8 -55 4 0 4 -8 0 -17 -10 -22 -10 -133 0 -150 4 -6 3 -14
-1 -17 -10 -6 -9 -36 2 -54 4 -6 4 -12 -1 -12 -10 0 -10 -91 1 -108 4 -7 4
-12 -1 -12 -4 0 -8 -25 -8 -55 0 -30 4 -55 8 -55 4 0 4 -8 0 -17 -11 -22 -10
-134 0 -150 5 -7 5 -19 1 -25 -11 -17 -11 -119 0 -125 4 -3 2 -9 -5 -13 -10
-7 -10 -11 0 -24 8 -9 10 -16 5 -16 -5 0 -9 -25 -9 -55 0 -30 4 -55 8 -55 4 0
4 -8 0 -17 -11 -23 -10 -134 1 -151 4 -7 4 -18 -1 -25 -10 -15 -10 -108 1
-125 4 -7 3 -12 -1 -12 -10 0 -10 -61 0 -77 4 -6 1 -14 -5 -16 -10 -4 -10 -6
0 -6 7 -1 10 -6 6 -12 -4 -7 -8 -21 -9 -33 -1 -11 -3 -23 -4 -26 -2 -9 -71 -5
-71 4 0 5 -6 5 -12 0 -16 -11 -39 -11 -55 -1 -7 5 -13 4 -13 -1 0 -5 -12 -7
-27 -5 -32 5 -38 5 -73 0 -14 -2 -31 1 -37 6 -8 6 -13 6 -13 0 0 -6 -12 -8
-27 -6 -33 5 -38 5 -80 0 -18 -2 -34 0 -35 5 -2 4 -9 4 -17 -1 -16 -10 -22
-80 -8 -98 6 -8 6 -13 -1 -13 -6 0 -7 -13 -2 -35 4 -19 5 -35 1 -35 -3 0 -6
-25 -6 -55 0 -30 4 -55 8 -55 5 0 5 -5 1 -12 -11 -17 -12 -78 -1 -78 4 0 3
-10 -4 -21 -8 -16 -8 -20 1 -14 9 5 10 2 3 -11 -10 -21 -10 -114 0 -130 3 -6
2 -16 -2 -23 -5 -7 -5 -28 -1 -47 4 -19 5 -34 1 -34 -3 0 -6 -25 -6 -55 0 -30
4 -55 8 -55 5 0 5 -5 1 -12 -11 -17 -12 -78 -1 -78 4 0 3 -10 -4 -21 -8 -16
-8 -20 1 -14 9 5 10 2 3 -11 -10 -21 -10 -114 0 -130 3 -6 2 -16 -2 -23 -5 -7
-5 -28 -1 -47 4 -19 5 -34 1 -34 -3 0 -6 -25 -6 -55 0 -30 4 -55 9 -55 5 0 2
-7 -5 -17 -11 -13 -11 -17 -1 -20 6 -3 9 -9 6 -15 -9 -14 -8 -109 1 -130 4
-10 12 -15 18 -11 15 9 117 10 117 0 0 -4 8 -4 18 1 9 5 26 6 37 2 11 -4 31
-4 45 -1 32 8 52 7 68 -2 6 -5 12 -4 12 1 0 5 15 7 33 5 64 -9 72 -9 95 -1 13
4 23 3 23 -2 3 -20 4 -25 11 -36 4 -6 4 -14 1 -18 -10 -10 -11 -46 -1 -46 5 0
6 -5 2 -12 -11 -17 -11 -91 0 -105 5 -8 5 -13 0 -13 -11 0 -11 -91 0 -108 4
-7 4 -12 -1 -12 -10 0 -9 -102 1 -119 4 -7 14 -10 22 -7 7 3 16 1 19 -5 4 -5
12 -6 18 -2 16 10 38 10 58 1 8 -3 21 -3 29 2 8 5 21 5 30 0 9 -5 22 -5 30 0
8 5 21 5 30 0 9 -5 22 -5 30 0 8 5 21 5 30 0 9 -5 22 -5 30 0 8 5 21 5 29 1 9
-5 25 -5 36 -1 11 4 26 3 33 -2 8 -7 12 -7 12 0 0 6 7 9 16 5 9 -3 20 0 25 8
6 9 9 10 9 2 0 -6 -4 -14 -9 -18 -11 -6 -9 -44 3 -63 4 -7 3 -12 -1 -12 -12 0
-10 -63 1 -72 6 -4 6 -12 0 -20 -11 -15 -11 -108 0 -126 4 -7 3 -12 -1 -12
-10 0 -10 -66 0 -76 10 -10 9 -26 -1 -20 -5 3 -7 -10 -6 -29 2 -19 -2 -38 -8
-42 -17 -10 -58 -10 -58 0 0 4 -9 3 -20 -3 -14 -8 -20 -8 -20 0 0 7 -6 8 -17
2 -10 -5 -27 -6 -38 -2 -11 4 -27 5 -35 1 -8 -4 -34 -5 -57 -4 -66 4 -66 4
-95 0 -16 -2 -28 0 -28 5 0 5 -6 6 -12 1 -16 -9 -51 -10 -58 -1 -3 4 -11 3
-18 -1 -16 -10 -23 -81 -10 -98 5 -7 5 -14 -1 -17 -7 -4 -7 -15 -1 -31 5 -13
6 -26 2 -29 -9 -5 -8 -109 2 -124 4 -7 3 -12 -3 -12 -10 0 -9 -19 2 -37 5 -7
5 -13 0 -13 -10 0 -9 -62 1 -78 4 -7 2 -12 -4 -12 -6 0 -9 -4 -6 -9 9 -14 -16
-27 -44 -24 -35 5 -41 5 -72 0 -16 -2 -28 0 -28 5 0 5 -7 5 -17 -1 -10 -5 -26
-5 -39 -1 -12 5 -24 6 -27 4 -10 -10 -57 -11 -57 -2 0 5 -6 6 -12 2 -18 -11
-48 -12 -48 -2 0 5 -6 6 -12 2 -18 -11 -48 -12 -48 -2 0 5 -8 4 -18 -1 -11 -6
-24 -6 -35 0 -13 8 -17 6 -18 -8 -4 -65 -4 -79 4 -90 4 -6 3 -14 -2 -17 -7 -4
-7 -15 -1 -31 5 -13 6 -26 2 -29 -9 -5 -8 -109 2 -124 4 -7 3 -12 -1 -12 -10
0 -10 -66 0 -76 10 -10 9 -26 -1 -20 -5 3 -7 -10 -6 -29 2 -19 -2 -38 -8 -42
-17 -10 -58 -10 -58 0 0 6 -5 6 -12 0 -7 -5 -24 -8 -38 -6 -14 2 -31 3 -37 3
-7 0 -20 0 -28 0 -8 0 -22 0 -30 0 -8 0 -22 0 -30 0 -8 0 -22 0 -30 0 -49 0
-76 0 -87 1 -7 0 -27 -1 -45 -4 -18 -2 -34 0 -37 7 -3 7 -5 7 -5 -1 -1 -7 -7
-10 -15 -7 -22 8 -21 -1419 0 -1437 8 -6 14 -8 14 -3 0 11 101 11 118 0 7 -4
12 -3 12 2 0 10 30 9 48 -2 6 -4 12 -3 12 2 0 10 30 9 48 -2 6 -4 12 -3 12 2
0 10 30 9 48 -2 6 -4 12 -3 12 2 0 10 36 9 46 -1 4 -4 13 -2 21 4 9 9 13 8 13
0 0 -8 5 -9 19 -2 14 8 22 7 31 -4 7 -9 10 -18 7 -22 -4 -3 -2 -12 4 -20 9 -9
8 -13 0 -13 -8 0 -9 -5 -2 -19 6 -10 8 -21 4 -24 -9 -9 -9 -198 0 -204 4 -2 4
-10 0 -16 -4 -6 -7 -42 -7 -79 -1 -70 7 -84 41 -71 11 4 14 3 9 -5 -5 -9 -1
-10 16 -3 15 5 31 5 41 0 10 -6 17 -6 17 -1 0 5 12 7 28 5 15 -2 36 -4 47 -3
11 1 39 1 63 1 44 -1 63 -1 87 -1 8 0 22 0 30 0 8 0 22 0 30 0 8 0 21 -1 28
-1 6 -1 26 2 42 6 22 5 26 4 15 -4 -17 -11 -20 -40 -6 -59 5 -7 5 -12 0 -12
-11 0 -11 -91 0 -108 4 -7 4 -12 -1 -12 -4 0 -8 -25 -8 -55 0 -30 4 -55 8 -55
5 0 5 -5 1 -12 -4 -6 -8 -44 -8 -85 -1 -74 7 -89 39 -77 8 4 15 1 15 -4 0 -7
10 -8 30 -2 18 5 32 5 36 -1 3 -5 10 -6 17 -2 16 10 57 10 57 0 0 -4 6 -5 12
-1 7 5 22 8 33 8 11 0 26 -3 33 -8 6 -4 12 -3 12 1 0 10 41 10 57 0 7 -4 14
-4 17 1 6 9 67 9 83 -1 6 -4 14 -3 18 3 12 19 25 0 21 -30 -2 -17 1 -30 7 -30
5 0 3 -8 -4 -17 -12 -14 -12 -16 0 -8 10 6 12 4 6 -5 -10 -17 -12 -160 -2
-160 4 0 5 -5 1 -12 -10 -16 -11 -98 0 -98 4 0 4 -6 -2 -13 -7 -8 -7 -18 -2
-27 5 -8 6 -18 3 -23 -9 -14 -9 -198 0 -204 4 -2 4 -9 1 -15 -11 -17 -11 -88
0 -88 6 0 6 -4 -1 -11 -7 -7 -8 -21 -3 -40 5 -16 5 -31 2 -33 -9 -5 -8 -114 1
-122 13 -13 -27 -33 -45 -23 -10 5 -18 6 -18 2 0 -10 -72 -9 -88 1 -7 4 -12 3
-12 -2 0 -10 -30 -9 -48 2 -6 4 -12 3 -12 -2 0 -10 -30 -9 -48 2 -6 4 -12 3
-12 -2 0 -10 -30 -9 -48 2 -6 4 -12 3 -12 -2 0 -10 -30 -9 -48 2 -6 4 -12 3
-12 -2 0 -10 -42 -10 -50 0 -3 4 -12 3 -19 -1 -15 -10 -22 -89 -9 -97 5 -3 5
-10 2 -16 -10 -15 -10 -138 -1 -138 5 0 5 -5 1 -12 -10 -15 -10 -100 0 -116 4
-6 4 -12 -1 -12 -10 0 -10 -91 1 -108 4 -7 4 -12 -1 -12 -4 0 -8 -25 -8 -55 0
-30 4 -55 8 -55 4 0 4 -8 0 -18 -11 -22 -10 -133 1 -150 4 -7 4 -18 -1 -25
-10 -15 -10 -108 1 -125 4 -7 3 -12 -1 -12 -5 0 -9 -13 -8 -30 0 -16 3 -30 7
-30 4 0 3 -11 -2 -25 -6 -17 -6 -25 1 -25 6 0 7 -6 2 -12 -10 -18 -11 -88 0
-88 4 0 5 -5 1 -12 -10 -16 -12 -78 -2 -78 3 0 3 -13 -2 -30 -5 -19 -5 -30 1
-30 6 0 7 -5 3 -12 -11 -17 -11 -89 0 -95 4 -3 3 -9 -4 -13 -7 -4 1285 -7
2871 -6 l2884 1 0 460 c1 253 -1 468 -3 478 -3 12 -11 17 -23 14 -11 -3 -19
-1 -19 3 0 5 -13 5 -30 0 -19 -5 -30 -5 -30 1 0 6 -6 7 -17 0 -10 -5 -26 -5
-39 -1 -12 5 -25 6 -28 3 -9 -10 -100 -9 -113 0 -8 6 -13 6 -13 0 0 -11 -42
-9 -59 2 -6 3 -11 2 -11 -3 0 -10 -42 -8 -61 4 -8 5 -9 3 -4 -6 6 -10 4 -10
-11 -2 -18 10 -19 31 -19 486 0 262 2 476 5 477 31 5 50 4 50 -2 0 -5 11 -4
24 1 15 5 27 5 35 -3 6 -6 11 -7 11 -1 0 11 40 11 57 1 7 -4 14 -4 16 0 6 10
99 9 115 -1 7 -4 12 -3 12 1 0 10 41 10 57 0 7 -4 14 -3 17 1 6 10 36 9 53 -1
6 -4 15 -1 20 6 11 14 11 936 0 954 -4 6 -2 15 4 19 8 4 9 3 5 -4 -5 -8 3 -11
23 -8 17 2 31 0 31 -5 0 -4 14 -4 30 1 19 5 30 5 30 -1 0 -6 7 -6 18 -1 9 5
26 6 37 2 11 -4 27 -5 35 -1 8 4 34 5 58 4 65 -4 65 -4 95 0 15 2 27 0 27 -5
0 -5 6 -6 12 -2 17 11 48 12 54 3 2 -5 10 -6 17 -3 9 3 12 63 12 242 0 203 2
238 15 243 8 4 21 2 28 -3 6 -6 12 -7 12 -2 0 5 16 9 35 9 19 0 35 -4 35 -9 0
-5 6 -4 13 1 12 9 54 10 63 1 3 -3 21 -2 40 2 20 5 34 4 34 -2 0 -5 6 -5 17 1
9 5 26 5 38 1 12 -5 28 -5 35 0 7 5 24 4 37 -1 12 -5 23 -5 23 -1 0 5 12 7 28
6 l27 -2 0 717 0 716 -21 1 c-12 1 -26 4 -33 8 -6 4 -11 3 -11 -2 0 -5 -12 -7
-27 -5 -16 2 -34 4 -40 4 -7 -1 -21 -1 -30 -1 -41 0 -70 -1 -95 -4 -14 -2 -32
0 -39 5 -7 4 -20 4 -29 -1 -9 -5 -22 -5 -29 0 -8 4 -27 4 -42 0 -19 -6 -29 -5
-29 2 0 7 -4 7 -12 0 -7 -5 -20 -7 -28 -3 -13 5 -15 40 -15 240 0 226 -1 234
-20 238 -29 5 -46 5 -77 0 -16 -2 -28 0 -28 5 0 5 -6 6 -12 2 -18 -11 -48 -12
-48 -2 0 5 -6 6 -12 2 -18 -11 -48 -12 -48 -2 0 5 -6 6 -12 2 -18 -11 -48 -12
-48 -2 0 5 -6 6 -12 2 -17 -11 -48 -12 -48 -3 0 4 -12 4 -27 1 -32 -8 -52 -8
-73 2 -13 5 -15 40 -14 234 0 131 -4 235 -9 247 -9 17 -8 18 4 9 8 -6 26 -11
42 -10 15 1 27 -2 27 -6 0 -4 11 -3 25 2 16 6 25 6 25 -1 0 -6 6 -6 18 -1 9 5
26 6 37 2 11 -4 27 -5 35 -1 8 4 34 5 58 4 65 -4 65 -4 95 0 15 2 27 0 27 -5
0 -5 6 -6 12 -2 17 11 48 12 54 3 2 -5 10 -6 17 -3 9 3 12 115 12 484 0 264 2
480 5 481 32 5 50 4 50 -2 0 -5 11 -4 25 1 17 6 25 6 25 -1 0 -6 5 -7 12 -3
17 11 58 11 58 1 0 -6 5 -6 13 0 10 7 38 8 132 3 6 -1 22 1 38 3 15 2 27 0 27
-5 0 -5 5 -6 12 -2 17 11 58 11 58 1 0 -5 6 -5 13 1 9 8 12 163 12 724 l0 713
-28 -1 c-15 0 -27 4 -27 9 0 6 -5 6 -12 0 -7 -5 -24 -8 -38 -6 -35 5 -41 5
-72 0 -16 -2 -28 0 -28 6 0 6 -5 6 -12 0 -7 -5 -24 -8 -38 -6 -14 2 -29 3 -35
3 -5 0 -21 -1 -35 -3 -14 -2 -31 1 -37 6 -8 6 -13 6 -13 0 0 -10 -47 -9 -57 1
-3 3 -14 1 -24 -5 -11 -5 -20 -6 -20 -2 -1 4 -2 654 -3 1443 l-1 1435 -28 -1
c-15 0 -27 4 -27 9 0 6 -5 6 -12 1 -16 -11 -39 -11 -55 -1 -7 5 -13 4 -13 -1
0 -5 -12 -7 -27 -5 -16 2 -34 4 -40 3 -15 0 -57 0 -120 0 -10 0 -31 0 -48 -1
-16 0 -48 -2 -70 -2 l-40 -2 0 240 0 240 -28 -1 c-15 0 -27 4 -27 9 0 6 -5 6
-12 1 -16 -11 -39 -11 -55 -1 -7 5 -13 5 -13 0 0 -4 -16 -8 -35 -8 -19 0 -35
3 -35 7 0 4 -13 3 -30 -2 -19 -5 -30 -5 -30 1 0 6 -6 7 -17 0 -10 -5 -26 -5
-39 -1 -12 5 -24 6 -28 3 -8 -9 -125 -9 -120 -1 3 5 1 8 -3 8 -5 0 -8 105 -8
234 l0 234 -717 0 c-395 0 -719 -3 -719 -6z"/>
</g>
</svg>
